<mxfile host="app.diagrams.net" agent="Mozilla/5.0 (Windows NT 10.0; Win64; x64) AppleWebKit/537.36 (KHTML, like Gecko) Chrome/128.0.0.0 Safari/537.36" version="24.7.14">
  <diagram name="Page-1" id="pMFmyDs4sqKI4_Mr-4X0">
    <mxGraphModel dx="1050" dy="522" grid="1" gridSize="10" guides="1" tooltips="1" connect="1" arrows="1" fold="1" page="1" pageScale="1" pageWidth="850" pageHeight="1100" math="0" shadow="0">
      <root>
        <mxCell id="0" />
        <mxCell id="1" parent="0" />
        <mxCell id="2QVIEgF7Uk5e_5rPIb5y-1" value="" style="sketch=0;pointerEvents=1;shadow=0;dashed=0;html=1;strokeColor=none;fillColor=#000000;labelPosition=center;verticalLabelPosition=bottom;verticalAlign=top;outlineConnect=0;align=center;shape=mxgraph.office.servers.file_server;" vertex="1" parent="1">
          <mxGeometry x="48" y="164" width="30" height="46" as="geometry" />
        </mxCell>
        <mxCell id="2QVIEgF7Uk5e_5rPIb5y-2" value="Json" style="text;html=1;align=center;verticalAlign=middle;whiteSpace=wrap;rounded=0;" vertex="1" parent="1">
          <mxGeometry x="32.5" y="209" width="60" height="30" as="geometry" />
        </mxCell>
        <mxCell id="2QVIEgF7Uk5e_5rPIb5y-19" style="edgeStyle=orthogonalEdgeStyle;rounded=0;orthogonalLoop=1;jettySize=auto;html=1;entryX=0;entryY=0.5;entryDx=0;entryDy=0;" edge="1" parent="1" source="2QVIEgF7Uk5e_5rPIb5y-3" target="2QVIEgF7Uk5e_5rPIb5y-6">
          <mxGeometry relative="1" as="geometry" />
        </mxCell>
        <mxCell id="2QVIEgF7Uk5e_5rPIb5y-3" value="" style="aspect=fixed;sketch=0;html=1;dashed=0;whitespace=wrap;verticalLabelPosition=bottom;verticalAlign=top;fillColor=#2875E2;strokeColor=#ffffff;points=[[0.005,0.63,0],[0.1,0.2,0],[0.9,0.2,0],[0.5,0,0],[0.995,0.63,0],[0.72,0.99,0],[0.5,1,0],[0.28,0.99,0]];shape=mxgraph.kubernetes.icon2;prIcon=api" vertex="1" parent="1">
          <mxGeometry x="145" y="165" width="50" height="48" as="geometry" />
        </mxCell>
        <mxCell id="2QVIEgF7Uk5e_5rPIb5y-4" value="ex_puuid" style="text;html=1;align=center;verticalAlign=middle;whiteSpace=wrap;rounded=0;" vertex="1" parent="1">
          <mxGeometry x="140" y="209" width="60" height="30" as="geometry" />
        </mxCell>
        <mxCell id="2QVIEgF7Uk5e_5rPIb5y-25" style="edgeStyle=orthogonalEdgeStyle;rounded=0;orthogonalLoop=1;jettySize=auto;html=1;entryX=0.5;entryY=1;entryDx=0;entryDy=0;endArrow=classic;endFill=1;startArrow=classic;startFill=1;" edge="1" parent="1" source="2QVIEgF7Uk5e_5rPIb5y-6" target="2QVIEgF7Uk5e_5rPIb5y-16">
          <mxGeometry relative="1" as="geometry" />
        </mxCell>
        <mxCell id="2QVIEgF7Uk5e_5rPIb5y-6" value="" style="shape=image;html=1;verticalAlign=top;verticalLabelPosition=bottom;labelBackgroundColor=#ffffff;imageAspect=0;aspect=fixed;image=https://cdn3.iconfinder.com/data/icons/document-icons-2/30/647702-excel-128.png" vertex="1" parent="1">
          <mxGeometry x="242" y="170" width="38" height="38" as="geometry" />
        </mxCell>
        <mxCell id="2QVIEgF7Uk5e_5rPIb5y-7" value="puuid" style="text;html=1;align=center;verticalAlign=middle;whiteSpace=wrap;rounded=0;" vertex="1" parent="1">
          <mxGeometry x="231" y="209" width="60" height="30" as="geometry" />
        </mxCell>
        <mxCell id="2QVIEgF7Uk5e_5rPIb5y-8" value="" style="aspect=fixed;sketch=0;html=1;dashed=0;whitespace=wrap;verticalLabelPosition=bottom;verticalAlign=top;fillColor=#2875E2;strokeColor=#ffffff;points=[[0.005,0.63,0],[0.1,0.2,0],[0.9,0.2,0],[0.5,0,0],[0.995,0.63,0],[0.72,0.99,0],[0.5,1,0],[0.28,0.99,0]];shape=mxgraph.kubernetes.icon2;prIcon=api" vertex="1" parent="1">
          <mxGeometry x="342" y="165" width="50" height="48" as="geometry" />
        </mxCell>
        <mxCell id="2QVIEgF7Uk5e_5rPIb5y-9" value="ex_dados_partida" style="text;html=1;align=center;verticalAlign=middle;whiteSpace=wrap;rounded=0;" vertex="1" parent="1">
          <mxGeometry x="337" y="209" width="60" height="30" as="geometry" />
        </mxCell>
        <mxCell id="2QVIEgF7Uk5e_5rPIb5y-10" value="" style="aspect=fixed;sketch=0;html=1;dashed=0;whitespace=wrap;verticalLabelPosition=bottom;verticalAlign=top;fillColor=#2875E2;strokeColor=#ffffff;points=[[0.005,0.63,0],[0.1,0.2,0],[0.9,0.2,0],[0.5,0,0],[0.995,0.63,0],[0.72,0.99,0],[0.5,1,0],[0.28,0.99,0]];shape=mxgraph.kubernetes.icon2;prIcon=api" vertex="1" parent="1">
          <mxGeometry x="445" y="66" width="50" height="48" as="geometry" />
        </mxCell>
        <mxCell id="2QVIEgF7Uk5e_5rPIb5y-11" value="bucket" style="text;html=1;align=center;verticalAlign=middle;whiteSpace=wrap;rounded=0;" vertex="1" parent="1">
          <mxGeometry x="440" y="114" width="60" height="30" as="geometry" />
        </mxCell>
        <mxCell id="2QVIEgF7Uk5e_5rPIb5y-26" style="edgeStyle=orthogonalEdgeStyle;rounded=0;orthogonalLoop=1;jettySize=auto;html=1;exitX=0.5;exitY=1;exitDx=0;exitDy=0;exitPerimeter=0;entryX=0.5;entryY=1;entryDx=0;entryDy=0;" edge="1" parent="1" source="2QVIEgF7Uk5e_5rPIb5y-12" target="2QVIEgF7Uk5e_5rPIb5y-2">
          <mxGeometry relative="1" as="geometry" />
        </mxCell>
        <mxCell id="2QVIEgF7Uk5e_5rPIb5y-12" value="" style="aspect=fixed;sketch=0;html=1;dashed=0;whitespace=wrap;verticalLabelPosition=bottom;verticalAlign=top;fillColor=#2875E2;strokeColor=#ffffff;points=[[0.005,0.63,0],[0.1,0.2,0],[0.9,0.2,0],[0.5,0,0],[0.995,0.63,0],[0.72,0.99,0],[0.5,1,0],[0.28,0.99,0]];shape=mxgraph.kubernetes.icon2;prIcon=api" vertex="1" parent="1">
          <mxGeometry x="445" y="270" width="50" height="48" as="geometry" />
        </mxCell>
        <mxCell id="2QVIEgF7Uk5e_5rPIb5y-13" value="funcoes" style="text;html=1;align=center;verticalAlign=middle;whiteSpace=wrap;rounded=0;" vertex="1" parent="1">
          <mxGeometry x="438" y="242" width="60" height="30" as="geometry" />
        </mxCell>
        <mxCell id="2QVIEgF7Uk5e_5rPIb5y-14" value="" style="sketch=0;points=[[0,0,0],[0.25,0,0],[0.5,0,0],[0.75,0,0],[1,0,0],[0,1,0],[0.25,1,0],[0.5,1,0],[0.75,1,0],[1,1,0],[0,0.25,0],[0,0.5,0],[0,0.75,0],[1,0.25,0],[1,0.5,0],[1,0.75,0]];outlineConnect=0;fontColor=#232F3E;fillColor=#7AA116;strokeColor=#ffffff;dashed=0;verticalLabelPosition=bottom;verticalAlign=top;align=center;html=1;fontSize=12;fontStyle=0;aspect=fixed;shape=mxgraph.aws4.resourceIcon;resIcon=mxgraph.aws4.s3;" vertex="1" parent="1">
          <mxGeometry x="560" y="234" width="38" height="38" as="geometry" />
        </mxCell>
        <mxCell id="2QVIEgF7Uk5e_5rPIb5y-15" value="" style="shape=image;html=1;verticalAlign=top;verticalLabelPosition=bottom;labelBackgroundColor=#ffffff;imageAspect=0;aspect=fixed;image=https://cdn3.iconfinder.com/data/icons/document-icons-2/30/647702-excel-128.png" vertex="1" parent="1">
          <mxGeometry x="242" y="29" width="38" height="38" as="geometry" />
        </mxCell>
        <mxCell id="2QVIEgF7Uk5e_5rPIb5y-16" value="puuid_extraidos" style="text;html=1;align=center;verticalAlign=middle;whiteSpace=wrap;rounded=0;" vertex="1" parent="1">
          <mxGeometry x="231" y="67" width="60" height="30" as="geometry" />
        </mxCell>
        <mxCell id="2QVIEgF7Uk5e_5rPIb5y-18" style="edgeStyle=orthogonalEdgeStyle;rounded=0;orthogonalLoop=1;jettySize=auto;html=1;entryX=-0.076;entryY=0.454;entryDx=0;entryDy=0;entryPerimeter=0;" edge="1" parent="1" source="2QVIEgF7Uk5e_5rPIb5y-1" target="2QVIEgF7Uk5e_5rPIb5y-3">
          <mxGeometry relative="1" as="geometry" />
        </mxCell>
        <mxCell id="2QVIEgF7Uk5e_5rPIb5y-21" style="edgeStyle=orthogonalEdgeStyle;rounded=0;orthogonalLoop=1;jettySize=auto;html=1;entryX=-0.016;entryY=0.487;entryDx=0;entryDy=0;entryPerimeter=0;" edge="1" parent="1" source="2QVIEgF7Uk5e_5rPIb5y-6" target="2QVIEgF7Uk5e_5rPIb5y-8">
          <mxGeometry relative="1" as="geometry" />
        </mxCell>
        <mxCell id="2QVIEgF7Uk5e_5rPIb5y-22" style="edgeStyle=orthogonalEdgeStyle;rounded=0;orthogonalLoop=1;jettySize=auto;html=1;entryX=0.005;entryY=0.63;entryDx=0;entryDy=0;entryPerimeter=0;startArrow=classic;startFill=1;" edge="1" parent="1" source="2QVIEgF7Uk5e_5rPIb5y-8" target="2QVIEgF7Uk5e_5rPIb5y-10">
          <mxGeometry relative="1" as="geometry" />
        </mxCell>
        <mxCell id="2QVIEgF7Uk5e_5rPIb5y-23" style="edgeStyle=orthogonalEdgeStyle;rounded=0;orthogonalLoop=1;jettySize=auto;html=1;entryX=0.005;entryY=0.63;entryDx=0;entryDy=0;entryPerimeter=0;" edge="1" parent="1" source="2QVIEgF7Uk5e_5rPIb5y-8" target="2QVIEgF7Uk5e_5rPIb5y-12">
          <mxGeometry relative="1" as="geometry" />
        </mxCell>
        <mxCell id="2QVIEgF7Uk5e_5rPIb5y-27" value="" style="sketch=0;points=[[0,0,0],[0.25,0,0],[0.5,0,0],[0.75,0,0],[1,0,0],[0,1,0],[0.25,1,0],[0.5,1,0],[0.75,1,0],[1,1,0],[0,0.25,0],[0,0.5,0],[0,0.75,0],[1,0.25,0],[1,0.5,0],[1,0.75,0]];outlineConnect=0;fontColor=#232F3E;fillColor=#7AA116;strokeColor=#ffffff;dashed=0;verticalLabelPosition=bottom;verticalAlign=top;align=center;html=1;fontSize=12;fontStyle=0;aspect=fixed;shape=mxgraph.aws4.resourceIcon;resIcon=mxgraph.aws4.s3;" vertex="1" parent="1">
          <mxGeometry x="560" y="318" width="38" height="38" as="geometry" />
        </mxCell>
        <mxCell id="2QVIEgF7Uk5e_5rPIb5y-28" style="edgeStyle=orthogonalEdgeStyle;rounded=0;orthogonalLoop=1;jettySize=auto;html=1;entryX=0;entryY=0.5;entryDx=0;entryDy=0;entryPerimeter=0;" edge="1" parent="1" source="2QVIEgF7Uk5e_5rPIb5y-12" target="2QVIEgF7Uk5e_5rPIb5y-27">
          <mxGeometry relative="1" as="geometry" />
        </mxCell>
        <mxCell id="2QVIEgF7Uk5e_5rPIb5y-29" style="edgeStyle=orthogonalEdgeStyle;rounded=0;orthogonalLoop=1;jettySize=auto;html=1;entryX=0;entryY=0.5;entryDx=0;entryDy=0;entryPerimeter=0;" edge="1" parent="1" source="2QVIEgF7Uk5e_5rPIb5y-12" target="2QVIEgF7Uk5e_5rPIb5y-14">
          <mxGeometry relative="1" as="geometry" />
        </mxCell>
        <mxCell id="2QVIEgF7Uk5e_5rPIb5y-30" value="match-idsX" style="text;html=1;align=center;verticalAlign=middle;whiteSpace=wrap;rounded=0;" vertex="1" parent="1">
          <mxGeometry x="544" y="275" width="71" height="30" as="geometry" />
        </mxCell>
        <mxCell id="2QVIEgF7Uk5e_5rPIb5y-31" value="match-infoX" style="text;html=1;align=center;verticalAlign=middle;whiteSpace=wrap;rounded=0;" vertex="1" parent="1">
          <mxGeometry x="543.5" y="360" width="71" height="30" as="geometry" />
        </mxCell>
      </root>
    </mxGraphModel>
  </diagram>
</mxfile>
